<svg xmlns="http://www.w3.org/2000/svg" viewBox="0 0 110.54 126.64">
	<g data-name="Layer 2">
		<path d="M85.09 66h6c9.88 0 17.89 7.21 17.89 16.1s-8 16.1-17.89 16.1h-6m0 16.11c0 5.92-5.34 10.73-11.93 10.73H19.49c-6.59 0-11.93-4.81-11.93-10.73v-59h77.53zM84.38 1.94c6.16 8.45-3 13.08-5.09 17.61C77 24.36 79.23 29 84.57 31c17.3 6.54 22.43-24.13-.19-29.06zM67.2 55.27l15.56-25.16m6.15 1.85l-9.79 23.31m-47.71 0H13.53l-8.95-16.1-2.98-16.1 14.91 8.05 14.9 24.15zM4.58 39.17l11.93-8.05M37.38 1.6h23.85v53.67H37.38zm23.85 10.73H49.31m11.92 10.74h-5.96m5.96 10.73H49.31m11.92 10.73h-5.96" fill="none" stroke="#fff" stroke-linecap="round" stroke-linejoin="round" stroke-width="3.2" data-name="Layer 1"></path>
	</g>
</svg>