<svg xmlns="http://www.w3.org/2000/svg" viewBox="0 0 98.31 30.85"><g data-name="Layer 2"><path d="M61.27 30.1v.46c0 .18.11.17.34.17s.36 0 .36-.17v-3.93c0-.5.14-1.88-1.69-1.88a3.4 3.4 0 00-2.17.76.27.27 0 00-.08.28c0 .11.22.55.42.38a3 3 0 011.72-.69c.79 0 1 .4 1 1v.79a13.33 13.33 0 00-3 .72c-.5.23-.4 1-.4 1.31a1.54 1.54 0 001.68 1.47 2.77 2.77 0 001.82-.67zm-2.67-.88c0-.16 0-.74.25-.87a10.54 10.54 0 012.37-.48v1.75a2.65 2.65 0 01-1.53.5 1 1 0 01-1.1-.9zm8.15.42v.91a.14.14 0 00.07.14 1.23 1.23 0 00.26 0 1.13 1.13 0 00.28 0c.07 0 .07-.08.07-.14V25a.14.14 0 00-.08-.14 1.12 1.12 0 00-.29 0 1.36 1.36 0 00-.29 0 .14.14 0 00-.08.14v4.22a3 3 0 01-2 .86c-.82 0-1-.6-1-1.23V25a.14.14 0 00-.08-.14 1.47 1.47 0 00-.32 0 1.38 1.38 0 00-.29 0 .15.15 0 00-.08.14v3.76c0 1.44.53 2.09 1.51 2.09a3.77 3.77 0 002.32-1.21zm5.68-.64c0-1.91-2.93-1.66-2.93-2.87 0-.68.79-.79 1.12-.79a2.93 2.93 0 011.26.37.13.13 0 00.14 0 1.43 1.43 0 00.25-.51.11.11 0 000-.12 3.69 3.69 0 00-1.59-.4c-1 0-1.91.36-1.91 1.55 0 1.65 3 1.37 3 2.91 0 .79-1 1-1.32 1a2.81 2.81 0 01-1.45-.39.12.12 0 00-.12 0 2.08 2.08 0 00-.25.54.11.11 0 000 .11 3.17 3.17 0 001.59.4c.87.03 2.21-.3 2.21-1.8zm4.43-4.16h-2v-1.23c0-.14-.15-.15-.39-.15s-.37 0-.37.15v1.23h-.69c-.15 0-.14.21-.14.32s0 .33.12.33h.71v2c0 2 0 3.37 1.34 3.37a2.8 2.8 0 001.56-.68.1.1 0 000-.11.86.86 0 00-.17-.28h-.18a1.85 1.85 0 01-.84.36c-.73 0-1-.69-1-1.67v-3h2c.13 0 .14-.18.14-.36s.05-.28-.09-.28zm4.03-.08c-.91 0-1.54 1-1.94 1.9v-1.73s0-.11-.07-.12a1.12 1.12 0 00-.57.05c-.05 0-.07.07-.07.14v5.56a.14.14 0 00.07.14 1.84 1.84 0 00.33 0 1.56 1.56 0 00.29 0 .16.16 0 00.08-.14v-3.13c.5-1 .94-1.77 1.68-1.77a.76.76 0 01.44.15c.07 0 .18.06.22 0a1.45 1.45 0 00.18-.32 1.43 1.43 0 00.11-.37.24.24 0 00-.07-.17 1.22 1.22 0 00-.68-.19zm5.6 5.8v-3.93c0-.5.14-1.88-1.69-1.88a3.39 3.39 0 00-2.17.76.28.28 0 00-.08.28c0 .11.22.55.41.38a3 3 0 011.73-.69c.79 0 1 .4 1 1v.79a13.32 13.32 0 00-3 .72c-.5.23-.4 1-.4 1.31A1.54 1.54 0 0084 30.81a2.79 2.79 0 001.75-.71v.46c0 .18.1.17.35.17s.39-.02.39-.17zm-.76-.94a2.65 2.65 0 01-1.54.5 1 1 0 01-1.08-.9c0-.16 0-.74.25-.87a10.53 10.53 0 012.36-.48zm2.47-7.49a.19.19 0 00-.08.14v8.29a.15.15 0 00.08.14 1.48 1.48 0 00.29 0 1.87 1.87 0 00.32 0 .15.15 0 00.07-.14v-8.29a.17.17 0 00-.07-.14 1.55 1.55 0 00-.32 0 1.24 1.24 0 00-.29 0zM91 30.7a.16.16 0 00.09-.14v-5.65a.11.11 0 00-.09-.13 1.62 1.62 0 00-.59 0c-.07 0-.07.11-.07.14v5.62c0 .06 0 .11.06.14a1.88 1.88 0 00.32 0 1.48 1.48 0 00.28.02zm-.31-8.51a.51.51 0 100 1 .51.51 0 100-1zm5.56 8.53c.25 0 .36 0 .36-.17v-3.92c0-.5.14-1.88-1.69-1.88a3.38 3.38 0 00-2.17.76.28.28 0 00-.08.28c0 .11.22.55.42.38a3 3 0 011.73-.69c.79 0 1 .4 1 1v.79a13.34 13.34 0 00-3 .72c-.5.23-.4 1-.4 1.31a1.53 1.53 0 001.67 1.47 2.78 2.78 0 001.74-.71v.46c.07.22.17.2.42.2zm-.4-1.11a2.67 2.67 0 01-1.54.5 1 1 0 01-1.08-.9c0-.16 0-.74.25-.87a10.6 10.6 0 012.37-.48zM15.11 19.24l-.32-.1c-.2-.07-.57-.19-.57-1.82V9.5c0-4.31-5-4.64-6.5-4.64-3.1 0-6.72.62-7.23 5.46l-.05.51H5.2l.06-.4c.1-.78.35-1.61 2-1.61S9.4 9.16 9.4 10c0 .15 0 .55-1 .68l-3.59.52C1.76 11.67 0 13.52 0 16.32 0 19.54 2.55 21 5.08 21a6.62 6.62 0 004.57-1.61 8 8 0 00.26.91l.11.32h5.1zM6.3 17.35a1.27 1.27 0 01-1.39-1.27c0-1.13.75-1.46 2.31-1.71a11.21 11.21 0 002.18-.48V15c0 1.45-1.57 2.35-3.1 2.35zM23.27 9a2.06 2.06 0 012.17 2l.07.38h4.94v-.5c-.36-4.4-3.93-6-7.15-6-5 0-7.73 3-7.73 8.47 0 1.79.54 7.66 7.47 7.66 5.37 0 7.17-3.81 7.39-6.07v-.51h-5v.46a2.25 2.25 0 01-2.24 2.06c-2.3 0-2.61-2-2.61-4.23-.04-1.13.23-3.72 2.69-3.72zM41 20.61h4.91V10.15c0-3.22-2.25-5.29-5.73-5.29a6 6 0 00-4 1.4V.19H31.3v20.42h4.91v-8.75A2.55 2.55 0 0138.89 9c2 0 2.13 1.13 2.13 2.39zM47.31 0h4.92v4.46h-4.92zm0 5.24h4.92v15.37h-4.92zM68.63 16l.18-.6h-5.06l-.1.33A2.15 2.15 0 0161.53 17a2.67 2.67 0 01-3-2.6h10.3v-1.13c0-7.59-5.31-8.41-7.59-8.41-7.35 0-7.72 6.47-7.72 7.76 0 5.47 2.77 8.36 8 8.36C65 21 67.7 19.14 68.63 16zm-10-5a2.39 2.39 0 012.56-2.11A2.46 2.46 0 0163.72 11zm19.68 9.6l5.83-15.37h-5.26l-2.9 9.58-2.83-9.58h-5.46l5.8 15.37h4.82zM91 21c3.51 0 6.17-1.85 7.11-4.94l.18-.6h-5.06l-.1.33A2.15 2.15 0 0191 17a2.67 2.67 0 01-3-2.6h10.31v-1.13c0-7.59-5.3-8.41-7.58-8.41-7.36 0-7.73 6.47-7.73 7.76 0 5.47 2.77 8.38 8 8.38zm-2.9-10a2.38 2.38 0 012.56-2.11A2.46 2.46 0 0193.21 11z" fill="#fff" data-name="Layer 1"/></g></svg>