<svg xmlns="http://www.w3.org/2000/svg" viewBox="0 0 119.63 39.45"><defs><style>.cls-1{fill:#fff}</style></defs><g id="Layer_2" data-name="Layer 2"><g id="Layer_1-2" data-name="Layer 1"><path class="cls-1" d="M26.97 18.96h4.15l-1.22 5.95h4.91l1.21-5.95h4.15l-3.21 15.55h-4.15l1.37-6.66h-4.91l-1.36 6.66h-4.15l3.21-15.55m23.6 15.17a14.61 14.61 0 01-4 .64c-3.86 0-5.95-2.38-5.95-5.3a6.67 6.67 0 016.93-6.84c3 0 5.33 1.53 5.33 5.05a11.76 11.76 0 01-.3 2.18h-8.21c0 1.25.66 2.23 3.11 2.23a9 9 0 003.62-.8l-.52 2.83m-1.07-6.52c0-1.25-.49-2.29-2-2.29a3 3 0 00-3 2.29zM62 32.88a4.4 4.4 0 01-3.89 1.89c-2.48 0-3.86-1.11-3.86-3.36 0-2.85 2.84-4.25 6.37-4.25.79 0 1.59.07 2.15.11a1.77 1.77 0 000-.47c0-.83-.82-1.49-2.13-1.49a7.25 7.25 0 00-3.75.91l.39-2.91a12.38 12.38 0 014.24-.68c2.75 0 5 1.09 5 3.95 0 1.82-1 4.43-1.46 7.92h-3.22l.16-1.62m-2.66-.78a3 3 0 003-2.74 6.37 6.37 0 00-1.07-.07c-1.9-.07-3.3.62-3.3 1.65a1.28 1.28 0 001.35 1.16M74 22.91l-.45 2.38h.05a4.21 4.21 0 013.57-2.65 4.52 4.52 0 011.69.29L78 26.47a2.8 2.8 0 00-1.87-.47c-1.69 0-2.69 1.47-3 3.18L72 34.51h-4l1.79-8.57c.2-1 .37-2 .48-3H74m7.14-.03h4l-2.39 11.6h-4l2.39-11.6m1-4.83h4L85.58 21h-4zm5.81 7.86c.2-1 .37-2 .48-3h3.7l-.3 1.89a5.47 5.47 0 014.46-2.17c2.33 0 3.6 1.74 3.6 4a11 11 0 01-.31 2.45l-1.07 5.41h-4.08l1.11-5.43a9.47 9.47 0 00.27-1.76A1.33 1.33 0 0094.25 26c-1.69 0-2.68 1.47-3 3.18l-1.13 5.35h-4l1.8-8.57m14.8 9.64a6.78 6.78 0 003.35.91c2.78 0 3.79-1 4.41-4a4.47 4.47 0 01-3.78 2c-3.17 0-4.73-2.21-4.73-5.28 0-3.58 2.46-6.59 6.2-6.59a4 4 0 014 2.39l.5-2.11h3.71c-.15.61-.44 1.54-.73 2.78l-1.78 7.9c-1 4.5-2.61 5.86-7.41 5.86a14 14 0 01-4.53-.74l.78-3.11m6.29-9.9c-2 0-2.88 2-2.88 3.59a2 2 0 002.08 2.14c2 0 2.93-2.11 2.93-3.63a2 2 0 00-2.13-2.1M32.83 11.53h-3.37l-1.17 1.63c-.4.57-.43.71-.43.88 0 .43.43.52.92.6s.58.08.58.31 0 .24-.32.24-1.28-.13-1.72-.13a10.58 10.58 0 00-1.62.13c-.12 0-.29 0-.29-.23s.11-.21.29-.24c.73-.12.78-.12 2.09-1.88l3.82-5.18a21.62 21.62 0 012.51-3 .17.17 0 01.18.15c0 .1.06.6.08.76l.42 7.51c.08 1.51.16 1.56.62 1.57s.52.13.52.25a.25.25 0 01-.27.26 13.72 13.72 0 00-2-.13 10.75 10.75 0 00-1.81.13c-.13 0-.26-.06-.26-.21s.14-.26.41-.3c.81-.09.95-.22.95-.84l-.09-2.31m-3-.6h3l-.13-3.3c0-.34 0-.38-.08-.38a15.11 15.11 0 00-1.09 1.4zm13.13.52s-2.52 3.91-4.85 3.91a.77.77 0 01-.79-.85 10.85 10.85 0 01.64-2.54c.18-.52 1.25-3.07 1.25-3.23a.16.16 0 00-.16-.16 3.17 3.17 0 00-1.5 1.33c-.05.08-.13.17-.21.17s-.15-.1-.15-.18a3.86 3.86 0 013.13-2.2c.37 0 .6.15.6.53 0 .66-2 5.26-2 5.85a.27.27 0 00.31.29c.69 0 2.15-1.35 3.38-3.09a8.47 8.47 0 001.37-3c.09-.31.16-.53.5-.56h1c.1 0 .26 0 .26.2s-1.94 5.2-1.94 6.16c0 .09 0 .21.16.21s.8-.25 1.65-1.46c.1-.14.15-.15.18-.15a.17.17 0 01.16.16c0 .68-2 2.54-3.28 2.54a.61.61 0 01-.6-.64 21.59 21.59 0 01.89-3.26m3.35 2.42c0-.25.16-.89.54-.89s.55.28 1.06.94 1 .93 1.26.93c.6 0 .93-.66.93-1.09S49.85 12.89 49 12s-1.31-1.5-1.31-2a2.79 2.79 0 013-2.33c1.09 0 2 .35 2 .93 0 .27-.12 1-.52 1s-.6-.29-.85-.54a2.21 2.21 0 00-1.53-.81c-.12 0-.75.06-.75.67s.49 1.14 1.8 2.47a2.4 2.4 0 01.87 1.61c0 1.19-1.38 2.26-3 2.26-.31 0-2.31 0-2.31-1.43m10.17-5.44c-.56 1.71-.57 1.77-1.32 4.22a7.15 7.15 0 00-.32 1.3c0 .21.1.29.19.29a3.55 3.55 0 001.58-1.43c0-.1.12-.18.21-.18a.19.19 0 01.18.18c0 .48-1.77 2.53-3.09 2.53-.34 0-.66-.26-.66-.94a5.13 5.13 0 01.2-1.36c.27-1.12.94-3.09 1.47-4.65H54c-.16 0-.34 0-.34-.13 0-.4.31-.4.74-.4h.78a9.69 9.69 0 01.73-1.92 5 5 0 011-.08c.21 0 .36 0 .36.2A7.45 7.45 0 0157 7l-.21.59a2 2 0 01-.08.25h1.69c.13 0 .13.13.13.16 0 .31-.28.37-.44.37h-1.52m3.98 3.93c.1-.24.24-.54.33-.72l.47-1c.1-.21 1.48-2.95 2.75-2.95a.83.83 0 01.85.91c0 .46-.26 1.25-.91 1.25a.55.55 0 01-.6-.52V9c0-.2-.1-.25-.16-.25-1 0-3.32 5.91-3.5 6.19s-.3.13-.68.13c-.63 0-.69 0-.69-.23s1.7-5.19 1.7-5.93c0 0 0-.26-.16-.26s-.8.62-1.17 1.19c-.13.19-.32.52-.46.52a.18.18 0 01-.16-.18c0-.36 1.56-2.56 2.78-2.56.35 0 .56.22.56.87a20.34 20.34 0 01-1 3.74m11.96-4.58c.11 0 .34 0 .34.18s-1.93 5.46-1.93 6.17c0 .13 0 .28.17.28.39 0 1.26-1.15 1.44-1.5.07-.09.13-.14.19-.14a.15.15 0 01.15.14c0 .41-1.54 2.54-3 2.54-.18 0-.65 0-.65-.68a8.07 8.07 0 01.44-1.77l.33-1a3.67 3.67 0 00.13-.41 4.48 4.48 0 01-.38.53c-1.15 1.49-2.59 3.36-4.08 3.36-.9 0-1.34-.78-1.34-1.69 0-3.1 3.47-5.82 5.66-5.82a2 2 0 011 .21 1.49 1.49 0 00.26.11c.06 0 .13-.15.15-.21.08-.23.18-.29.65-.29h.53m-5.89 6.53c1.21 0 4.34-4 4.34-5.28 0-.65-.71-.7-.91-.7-2.13 0-4.07 3.63-4.07 5.13 0 .21 0 .84.64.84m9.28-2.55a18 18 0 00-.7 2.41c0 .11 0 .22.18.22.4 0 1.33-1.13 1.56-1.5 0-.06.08-.11.14-.11a.18.18 0 01.18.16c0 .49-1.77 2.51-2.9 2.51-.5 0-.78-.34-.78-.91a10.74 10.74 0 01.6-2.45l1.86-5.43a2.17 2.17 0 00.17-.68c0-.36-.44-.39-.5-.39-.56 0-.62 0-.62-.18s.27-.27.72-.27a4.53 4.53 0 001.8-.36 1.82 1.82 0 01.38-.13c.07 0 .21 0 .21.18a.8.8 0 01-.07.24l-2.25 6.7M80.18 14c0 .1 0 .2.14.2.39 0 1.36-1.16 1.51-1.39 0-.05.09-.15.18-.15a.19.19 0 01.17.18c0 .41-1.81 2.44-3 2.44-.53 0-.69-.28-.69-.77 0-1 1.13-3.74 1.67-5a2.38 2.38 0 00.26-.75s0-.17-.13-.17c-.34 0-1.67 1.35-1.71 1.35a.18.18 0 01-.16-.18 4.49 4.49 0 013.13-2.18c.48 0 .51.41.51.66 0 .87-1.87 4.87-1.87 5.72M82.36 7a.74.74 0 01-.68-.83c0-.56.46-1.24 1-1.24s.67.68.67.83a1.21 1.21 0 01-1 1.24m8.94.65c.11 0 .34 0 .34.18S89.7 13.29 89.7 14c0 .13 0 .28.16.28.39 0 1.26-1.15 1.44-1.5.06-.09.13-.14.19-.14a.15.15 0 01.15.14c0 .41-1.54 2.54-3 2.54-.17 0-.65 0-.65-.68a7.65 7.65 0 01.44-1.77l.32-1 .13-.41a4.85 4.85 0 01-.37.53c-1.15 1.49-2.59 3.36-4.08 3.36-.91 0-1.35-.78-1.35-1.69 0-3.1 3.47-5.82 5.65-5.82a2 2 0 011 .21 1.35 1.35 0 00.26.11c.07 0 .13-.15.15-.21.08-.23.18-.29.65-.29h.54m-5.9 6.53c1.21 0 4.34-4 4.34-5.28 0-.65-.72-.7-.91-.7-2.14 0-4.07 3.63-4.07 5.13 0 .21 0 .84.63.84m9.92-2.39c1.05-1.73 2.55-4.14 4.52-4.14a1 1 0 011.17 1 7.15 7.15 0 01-.68 2.33 14 14 0 00-1 2.94c0 .17.08.3.19.3s.87-.57 1.33-1.22c.24-.32.25-.37.35-.37a.19.19 0 01.16.19c0 .33-1.57 2.51-3 2.51-.63 0-.73-.41-.73-.78 0-.94 1.78-5.17 1.78-5.7 0-.38-.26-.42-.37-.42-1.18 0-3.48 3-4.58 6.09-.21.6-.33.6-1.31.6-.15 0-.38 0-.38-.21s1.86-5.07 1.86-6c0-.21-.13-.23-.17-.23-.35 0-1.5 1.48-1.63 1.48a.21.21 0 01-.16-.2c0-.24 1.5-2.3 2.93-2.3.26 0 .57.09.57.8a11 11 0 01-.7 2.69l-.21.62m23.06 8.8a1 1 0 111-1 1 1 0 01-1 1m0 .25a1.29 1.29 0 10-1.29-1.3 1.3 1.3 0 001.29 1.3m-.5-.57h.28v-.63h.16l.38.63h.28l-.39-.64a.37.37 0 00.39-.4c0-.3-.19-.43-.55-.43h-.54zm.28-1.26h.24c.14 0 .3 0 .3.2s-.14.23-.3.23h-.24zM9 12.89s4.2-1.41 1.23-4.22c0 0-2.6-2.18-4 2.39A2.11 2.11 0 009 12.89zm-.47-2.83c0-.11.23-.16.23-.16h.12l.25.2a.1.1 0 01.05 0 1.81 1.81 0 01-.36.1.27.27 0 00-.13.07.16.16 0 010 .05c-.07.05-.11 0-.11 0a.5.5 0 01-.09-.19.27.27 0 00.08-.07zm-1-.11c.19-.09.23.17.23.17.16 0 .15.05.15.05a.47.47 0 010 .24v.93c-.05.2.24.3.24.3h.06a.61.61 0 01-.56 0c-.11-.14-.09-.23-.09-.23 0-.17.16-.65.16-.65l.06-.33c0-.16-.08-.17-.08-.17a.32.32 0 00-.16 0l-.24.08h-.07L7 10.25c.07-.09.52-.25.52-.25z"/><path class="cls-1" d="M5.92 34.71c.19-.5.4-1.2.4-1.2A3 3 0 017.25 32s1.2-1 2.67-4.89a7.5 7.5 0 011.24-2.21s1.66-1.64 1.9.82a9 9 0 001 3.92s1 1.51 1 5h1.83a.91.91 0 010-.65 44.88 44.88 0 00-1.56-11.79s-.93-4.51-1-5.68c0 0-.89-3.3 5.3-6.48 0 0 2.28-.82.12-1a10.36 10.36 0 00-4.37 1.51s-2.86 1.71-3.33 2.1a21.36 21.36 0 01-7 2.91s-3.75.73-5 1v1.43c.45 0 2.67-.26 4.58-.65 0 0 3.13-.93 3.67 1.17a8 8 0 01-.27 5.62 6.57 6.57 0 00-.5 1.16S6.13 29.2 5.67 31a4.56 4.56 0 01-.54 1.28s-.46.93-.55 1.17c0 0-.38.71-.66 1.2z"/><path class="cls-1" d="M0 18.06h.09v-1.44H0m14.19-8.24l-.94.32A3.39 3.39 0 009 6.56l-.32-.95a4.38 4.38 0 015.51 2.77zm3.23-1.3l-.94.32A7 7 0 007.83 3l-.32-1a8 8 0 019.91 5.08z"/><path class="cls-1" d="M19.1 6.5l-.94.31A8.77 8.77 0 007.34 1.4L7 .46A9.76 9.76 0 0119.1 6.5z"/><path class="cls-1" d="M15.84 7.71L14.9 8a5.24 5.24 0 00-6.54-3.25L8 3.81a6.23 6.23 0 017.84 3.9z"/></g></g></svg>