<svg xmlns="http://www.w3.org/2000/svg" viewBox="0 0 70.81 76.53">
	<defs>
		<style>
			.cls-1 {
				fill: #fff
			}
		</style>
	</defs>
	<g id="Layer_2" data-name="Layer 2">
		<g id="Layer_1-2" data-name="Layer 1">
			<path class="cls-1" d="M19.09 59.15L7.66 45.74H2.82v21h4.72V53.35l11.4 13.39h4.86v-21h-4.71zm45.27-13.41l-3.13 13.44-3.28-13.44h-4.52L50.09 59l-3-13.29h-4.97l5.46 21h4.86l3.21-13.29 3.26 13.29h4.77v-.18l5.5-20.82zM2.32 73.18a3.31 3.31 0 013.35-3.38 3.51 3.51 0 012.5.88l-.72.86a2.54 2.54 0 00-1.82-.7 2.2 2.2 0 00-2.11 2.29 2.17 2.17 0 002.21 2.32A2.64 2.64 0 007.3 75v-1.22H5.63v-1H8.4v2.73a4.14 4.14 0 01-2.71 1 3.23 3.23 0 01-3.37-3.34m6.77.01a3.33 3.33 0 013.41-3.38 3.3 3.3 0 013.39 3.34 3.33 3.33 0 01-3.41 3.36 3.3 3.3 0 01-3.39-3.34m5.6 0a2.23 2.23 0 00-2.21-2.31 2.19 2.19 0 00-2.19 2.29 2.23 2.23 0 002.21 2.31 2.2 2.2 0 002.19-2.29m1.12-3.25h1.26l1.96 5 1.95-5h1.24l-2.71 6.55h-1l-2.7-6.55zm7.17 0h4.83v1.03h-3.68v1.68h3.26v1.03h-3.26v1.74h3.72v1.02h-4.87v-6.5zm6.02 0h2.9a2.62 2.62 0 011.88.65 2 2 0 01.54 1.4 2 2 0 01-1.55 2l1.75 2.46h-1.39l-1.6-2.26H30.1v2.26H29zm2.81 3.22c.82 0 1.34-.43 1.34-1.09 0-.69-.5-1.08-1.35-1.08h-1.7v2.18zm3.47-3.22h1.06l3.48 4.5v-4.5h1.12v6.5h-.95l-3.59-4.62v4.62h-1.12v-6.5zm6.82 0h1.22l1.98 3.08 1.98-3.08h1.21v6.5h-1.14v-4.66l-2.05 3.06h-.04l-2.03-3.04v4.64H42.1v-6.5zm7.48 0h4.82v1.03h-3.67v1.68h3.25v1.03h-3.25v1.74h3.72v1.02h-4.87v-6.5zm5.99 0h1.06l3.49 4.5v-4.5h1.12v6.5h-.96l-3.58-4.62v4.62h-1.13v-6.5zm8.64 1.06h-2.07v-1.06h5.28v1.06h-2.06v5.44h-1.15v-5.44zM25.1 63.82l2.77-3.32a9.78 9.78 0 006.37 2.59c1.92 0 3.08-.76 3.08-2V61c0-1.19-.73-1.8-4.3-2.71C28.73 57.2 26 56 26 51.78v-.06c0-3.87 3.11-6.43 7.47-6.43A12.37 12.37 0 0141.35 48l-2.44 3.54a10 10 0 00-5.55-2.1c-1.8 0-2.74.82-2.74 1.86v.06c0 1.4.91 1.86 4.6 2.8 4.33 1.13 6.77 2.68 6.77 6.4v.06c0 4.24-3.23 6.62-7.83 6.62a13.58 13.58 0 01-9.05-3.41M14.05 5.87c-.44 0-.7.27-.8.79 0 0-.11.77-.23 2.07s-.24 3.08-.24 5.32c0 5.06.66 12.24 3.81 17.75 2.42 4.2 5.83 6.57 9.63 6.69A12 12 0 0122 32.54a32.35 32.35 0 01-1.34-9.76 54 54 0 011.12-10.71V12a2.26 2.26 0 011.11-1.57 56.31 56.31 0 00-7.87-4.23c-.39-.18-.6-.25-.6-.25a1.08 1.08 0 00-.42-.09m33.12 5.92a.55.55 0 00-.33.14l-.34.28c-.22.18-.54.45-1 .83a43.11 43.11 0 00-3.15 3.14 30.33 30.33 0 00-6.47 10.72 23 23 0 00-1.18 6.68 7.75 7.75 0 00.68 3.43 3.88 3.88 0 002 2 3.53 3.53 0 001.43.26c2.65 0 7.08-2.22 8.61-7.14a31.79 31.79 0 001.24-9.31 54.19 54.19 0 00-.91-9.63l-.17-.82c-.07-.25-.19-.56-.42-.56" />
			<path class="cls-1" d="M23.76 11.78c-.23 0-.37.31-.45.57l-.17.81c-.07.37-.22 1.15-.38 2.26a52.94 52.94 0 00-.54 7.37 30.7 30.7 0 001.25 9.29c1.53 4.92 6.1 7.16 8.83 7.16a3.83 3.83 0 001.5-.27 3.73 3.73 0 00.68-.37 5.72 5.72 0 01-.54-.91 9.63 9.63 0 01-.81-4.11 25.28 25.28 0 011.27-7.13c.07-.24.16-.49.24-.74l.1-.29c-2.9-7.2-9.55-12.62-10.3-13.22l-.36-.28a.66.66 0 00-.34-.14M35.41 0c-.16 0-.33.13-.49.38 0 0-.14.2-.36.57-.33.55-.65 1.09-1 1.66-.72 1.27-1.81 3.33-2.93 5.88-.77 1.74-1.47 3.56-2.08 5.4a35.54 35.54 0 017 9.59A35.36 35.36 0 0142.26 14a67.13 67.13 0 00-6-13.06l-.37-.57C35.66 0 35.47 0 35.41 0m21.33 5.87a1.05 1.05 0 00-.4.09s-.21.07-.59.25-.86.38-1.48.67L54 7a56.57 56.57 0 00-5.55 3.08l-.6.37A2.26 2.26 0 0149 12v.07a55 55 0 011.1 10.7 33.29 33.29 0 01-1.3 9.75 12 12 0 01-4.1 5.94c3.75-.18 7.11-2.53 9.5-6.69C57.37 26.29 58 19.1 58 14c0-1.79-.08-3.58-.24-5.34-.12-1.29-.23-2.05-.23-2.06a.81.81 0 00-.82-.78M46.34 1.6h-.16a.76.76 0 00-.36.15s-.83.51-2.1 1.42c-.7.51-1.82 1.34-3.19 2.47a66.4 66.4 0 012.65 6.27 53 53 0 015.47-3.74 54.7 54.7 0 00-1.5-5.9v-.06a.82.82 0 00-.77-.63m-21.91.02a.82.82 0 00-.77.63v.06a54 54 0 00-1.5 5.9 52.79 52.79 0 015.46 3.74 62.9 62.9 0 012.64-6.27c-1.08-.9-2.16-1.73-3.19-2.47C25.83 2.27 25 1.77 25 1.76a.76.76 0 00-.36-.15h-.16M6.11 15.26H4.36a1.43 1.43 0 00-1.1.65 1.37 1.37 0 00-.22.81c.08.76.58 3.51 3.87 7.65 1.68-.83 3.35-1.57 5-2.18a49 49 0 01-.59-6.7c-2-.19-3.59-.24-4.57-.26h-.6m58.54.03h-.59c-1 0-2.57.07-4.57.26a50.86 50.86 0 01-.6 6.7c1.62.62 3.29 1.35 5 2.18 3.29-4.15 3.79-6.9 3.87-7.65a1.51 1.51 0 00-.22-.8 1.43 1.43 0 00-1.1-.65h-1.75" />
			<path class="cls-1" d="M58.66 23.75a29.13 29.13 0 01-3.13 8.8 15.52 15.52 0 01-5.44 5.8c15.62-.85 20-5.87 20.49-6.46a1.4 1.4 0 00.23-.77 1.43 1.43 0 00-.55-1.12l-.51-.35c-.25-.19-.61-.42-1.06-.72l-.38-.25a55.64 55.64 0 00-5.12-2.91 46.67 46.67 0 00-4.52-2m-46.52-.02a53.59 53.59 0 00-11.1 5.88l-.5.37A1.43 1.43 0 000 31.12a1.38 1.38 0 00.23.77l.1.12.06.07a7.7 7.7 0 00.75.7 15.73 15.73 0 003.77 2.32c3.94 1.78 9.39 2.9 15.81 3.27a15.81 15.81 0 01-5.44-5.82 29.24 29.24 0 01-3.12-8.8M56.7 39.5a33.3 33.3 0 00-3.77.41l-.84.11a21.78 21.78 0 01-3 .16h-5.16a25.3 25.3 0 00-6.57.69.25.25 0 00-.18.23c0 .07.15.1.26.1h.1c.86-.2 1.7-.2 2.46-.2a24.86 24.86 0 016.67 1 21.55 21.55 0 005.76.87c2.47 0 4.43-.53 5.24-1.41a1.23 1.23 0 00.36-1c-.06-.66-.28-1-1.36-1m-42.57.04c-1.08 0-1.29.3-1.35 1a1.21 1.21 0 00.35 1c.79.87 2.8 1.42 5.25 1.42a21.54 21.54 0 005.76-.92 24.83 24.83 0 016.67-1c.79 0 1.63 0 2.49.12h.1c.11 0 .25 0 .26-.1a.25.25 0 00-.18-.23 25.3 25.3 0 00-6.57-.69h-5.16a21.82 21.82 0 01-3-.16l-.86-.12a33.44 33.44 0 00-3.76-.41" />
		</g>
	</g>
</svg>