<svg xmlns="http://www.w3.org/2000/svg" viewBox="0 0 58.7 90.56"><defs><style>.cls-1{fill:#fff}</style></defs><g id="Layer_2" data-name="Layer 2"><g id="Layer_1-2" data-name="Layer 1"><path class="cls-1" d="M.16 90.14v-6.22a.48.48 0 01.52-.46h.17c.37 0 .47.17.63.55L3.3 88l1.83-4c.16-.37.26-.55.63-.55h.15a.48.48 0 01.52.46v6.22c0 .22-.1.33-.31.33H6c-.2 0-.3-.11-.3-.33v-5.84l-1.82 4a.63.63 0 01-.63.46.62.62 0 01-.63-.46l-1.81-4v5.85c0 .22-.09.33-.3.33H.44c-.2 0-.28-.11-.28-.33zm7.27-2.24A2.56 2.56 0 0110 85.2a2.33 2.33 0 012.38 2.57v.06c0 .19-.08.24-.29.24h-4a1.88 1.88 0 001.94 1.86 1.83 1.83 0 001.78-.93.41.41 0 01.41.4c0 .35-.77 1.14-2.15 1.14a2.53 2.53 0 01-2.64-2.64zm.72-.43h3.49A1.6 1.6 0 0010 85.81a1.86 1.86 0 00-1.86 1.66zm5.78-1.34a2 2 0 011.73-.93c1.35 0 2 .9 2 2.25v2.69c0 .26-.13.33-.31.33h-.05c-.18 0-.31-.07-.31-.33v-2.65c0-1-.5-1.64-1.37-1.64a1.8 1.8 0 00-1.68 1.08v3.2c0 .26-.13.33-.31.33h-.07c-.18 0-.31-.07-.31-.33v-4.77s.11-.07.24-.07.45.12.45.67zm4.34-.46v-.06c0-.18.07-.28.33-.28h.47v-.89c0-.26.13-.33.31-.33h.08c.18 0 .3.07.3.33v.89h1.36c.26 0 .33.1.33.28v.06c0 .18-.08.28-.33.28h-1.36v2.9c0 .75.19 1.1.76 1.1a1 1 0 00.79-.37s.24.08.24.34-.38.63-1 .63c-1 0-1.42-.57-1.42-1.63V86h-.47c-.31 0-.39-.15-.39-.33zm3.6 3.45c0-1.19 1.19-1.68 3.54-1.74h.11v-.18a1.26 1.26 0 00-1.43-1.36 1.75 1.75 0 00-1.63.94.41.41 0 01-.4-.41c0-.36.73-1.18 2.08-1.18a1.86 1.86 0 012.07 2v3.21s-.11.07-.24.07-.44-.12-.44-.67v-.2a2.26 2.26 0 01-1.91.94c-1.1 0-1.75-.54-1.75-1.42zm3.65-.72v-.47h-.3c-1.75.06-2.64.37-2.64 1.18 0 .51.42.85 1.11.85a1.66 1.66 0 001.83-1.56zm1.92 1.74v-6.93s.11-.08.24-.08.46.12.46.67v6.33c0 .26-.13.33-.31.33h-.07c-.19.01-.32-.07-.32-.32zm3.68 0v-6.35a.29.29 0 01.31-.33h.1a.29.29 0 01.32.33v2.84H36v-2.84c0-.21.11-.33.31-.33h.1a.29.29 0 01.32.33v6.35c0 .22-.11.33-.32.33h-.1c-.2 0-.31-.11-.31-.33v-2.85h-4.15v2.85c0 .22-.11.33-.32.33h-.1c-.2 0-.31-.11-.31-.33zm6.61-2.24a2.56 2.56 0 012.57-2.7 2.33 2.33 0 012.38 2.57v.06c0 .19-.07.24-.29.24h-4a1.88 1.88 0 001.94 1.86 1.83 1.83 0 001.78-.93.41.41 0 01.41.4c0 .35-.77 1.14-2.15 1.14a2.53 2.53 0 01-2.64-2.64zm.72-.43h3.49a1.6 1.6 0 00-1.64-1.66 1.86 1.86 0 00-1.85 1.66zm4.78 1.65c0-1.19 1.19-1.68 3.54-1.74h.11v-.18a1.26 1.26 0 00-1.43-1.36 1.75 1.75 0 00-1.63.94.41.41 0 01-.4-.41c0-.36.73-1.18 2.08-1.18a1.86 1.86 0 012.07 2v3.21s-.11.07-.24.07-.44-.12-.44-.67v-.2a2.26 2.26 0 01-1.91.94c-1.11 0-1.75-.54-1.75-1.42zm3.65-.72v-.47h-.3c-1.75.06-2.65.37-2.65 1.18 0 .51.42.85 1.11.85a1.66 1.66 0 001.84-1.56zm1.91 1.74v-6.93s.11-.08.24-.08.46.12.46.67v6.33c0 .26-.13.33-.31.33h-.08c-.18.01-.31-.07-.31-.32zm1.49-4.47v-.06c0-.18.08-.28.33-.28h.47v-.89c0-.26.13-.33.31-.33h.07c.18 0 .3.07.3.33v.89h1.36c.26 0 .33.1.33.28v.06c0 .18-.07.28-.33.28h-1.35v2.9c0 .75.19 1.1.76 1.1a1 1 0 00.79-.37s.24.08.24.34-.37.63-1 .63c-1 0-1.42-.57-1.42-1.63V86h-.47c-.31 0-.39-.15-.39-.33zm4.72.47a2 2 0 011.72-.94c1.35 0 2 .9 2 2.25v2.69c0 .26-.13.33-.31.33h-.08c-.18 0-.31-.07-.31-.33v-2.65c0-1-.51-1.64-1.37-1.64A1.61 1.61 0 0055 87.6v2.54c0 .26-.13.33-.31.33h-.07c-.18 0-.31-.07-.31-.33v-6.93s.11-.08.24-.08.46.12.46.67zm3.49-16.08v-.3c0-3-2-4.59-5.8-4.59h-4.34A1.66 1.66 0 0046.59 67v11.1c0 1.18.5 1.84 1.41 1.84h.48a1.35 1.35 0 001.46-1.52v-3.77h2.42L55.2 79c.65 1 1.43 1.26 2.19.76l.4-.26a1.35 1.35 0 00.38-2.06L56 74.09a4 4 0 002.49-4.03zm-8.6-2.28h2.5c1.82 0 2.73.77 2.73 2.21s-.86 2.21-2.66 2.21h-2.57zM0 78V67a1.71 1.71 0 011.77-1.87h3.71c5 0 7.94 2.75 7.94 7.3s-3.07 7.42-8 7.42H1.87A1.84 1.84 0 010 78zm5.37-1c2.93 0 4.71-1.66 4.71-4.53S8.3 68 5.41 68H3.32v9zm9.11-4.47a7.35 7.35 0 017.6-7.67 7.65 7.65 0 010 15.31 7.28 7.28 0 01-7.6-7.64zm11.85 0c0-2.78-1.75-4.71-4.28-4.71s-4.23 1.87-4.23 4.69 1.73 4.69 4.25 4.69 4.26-1.87 4.26-4.67zm4.03 0A7.35 7.35 0 0138 64.87a7.65 7.65 0 010 15.31 7.28 7.28 0 01-7.64-7.65zm11.85 0c0-2.78-1.75-4.71-4.28-4.71s-4.23 1.87-4.23 4.69 1.73 4.69 4.25 4.69 4.26-1.87 4.26-4.67zm.53-21.71a5.64 5.64 0 00-5.65 5.94 5.57 5.57 0 005.8 5.84 5.64 5.64 0 004.36-1.71l.27-.32a.57.57 0 00-.06-.92l-.12-.1a.57.57 0 00-.91.12l-.26.32a4.14 4.14 0 01-3.28 1.24 4.14 4.14 0 01-4.26-4.1h8.72c.47 0 .64-.09.64-.52v-.14c.01-3.41-2.1-5.65-5.25-5.65zm-4.08 5a4.1 4.1 0 014.08-3.65 3.53 3.53 0 013.6 3.65zm-21.52-8.87c-4.41 0-7.53 3.24-7.53 7.86s3.06 7.79 7.49 7.79 7.53-3.22 7.53-7.84-3.06-7.81-7.49-7.81zm0 14.28c-3.43 0-5.9-2.68-5.9-6.46s2.43-6.44 5.86-6.44 5.9 2.72 5.9 6.48-2.43 6.41-5.86 6.41zm14.15-10.41a4.4 4.4 0 00-3.79 2v-1.1c0-.57-.28-.73-.68-.73h-.16c-.4 0-.68.16-.68.73v9.94c0 .57.28.73.68.73h.16c.4 0 .68-.16.68-.73v-7a4 4 0 013.7-2.38c1.91 0 3 1.37 3 3.6v5.82c0 .57.28.73.68.73h.16c.4 0 .68-.16.68-.73v-5.93c.02-2.97-1.46-4.95-4.43-4.95zM28.5 32.6c-.39 0-.55.27-.36.61l.74 1.32a.38.38 0 00.71 0l.78-1.3c.2-.34 0-.61-.35-.62zm-2.8-20.78a12.43 12.43 0 00.56 1.72 10.09 10.09 0 011.33-.31.77.77 0 01.11-.36l.5-.85a41.15 41.15 0 011.05-4.81 43.4 43.4 0 011 4.77l.51.9a.81.81 0 01.11.34 10.23 10.23 0 011.33.31 14.77 14.77 0 00.54-1.73 14.71 14.71 0 00.35-3A11.91 11.91 0 0029.25 0a11.91 11.91 0 00-3.89 8.84 15.1 15.1 0 00.34 3zm13.48-4.09a10.17 10.17 0 00-1-5.93 10.12 10.12 0 00-4.81 3.6 11.42 11.42 0 011.32 5.2 13.13 13.13 0 014.49-2.87zM37.85 22.5l-1.45-.79c-.37-.2-.67 0-.66.4v1.65c0 .43.32.59.68.37l1.41-.86a.41.41 0 00.02-.77zm-9.43 5.79h1.65c.43 0 .6-.31.38-.67l-.83-1.43a.41.41 0 00-.77 0L28 27.62c-.18.38 0 .67.42.67zm.51-8.21a.41.41 0 00.77 0l.82-1.44c.21-.37 0-.67-.39-.67h-1.64c-.43 0-.6.3-.38.67zm-6-2.72l.42 1.6a.41.41 0 00.75.2L25.27 18a.41.41 0 00-.2-.75l-1.59-.43c-.41-.11-.66.18-.55.55zM30.58 16l-.83-1.43a.41.41 0 00-.77 0L28.15 16c-.21.37 0 .67.39.67h1.65c.43-.05.6-.35.39-.67zm6.83 8.95l-1.64.21c-.42.05-.56.38-.3.71l1 1.31a.41.41 0 00.77-.1l.64-1.52c.12-.44-.05-.71-.47-.66zm-7.22 4.71h-1.65c-.43 0-.6.31-.38.67l.84 1.4a.41.41 0 00.77 0l.81-1.44c.21-.38.03-.68-.39-.68zm1.54-8.36l1.59-.44a.41.41 0 00.2-.75l-1.17-1.16a.41.41 0 00-.75.2l-.42 1.6c-.11.37.14.62.55.51zm4.51-2.54l-1 1.33c-.25.34-.11.66.31.71l1.64.18c.42 0 .63-.24.46-.63L37 18.8a.41.41 0 00-.76-.08zm-1.28-2l-1.6.42a.41.41 0 00-.2.75L34.32 19a.41.41 0 00.75-.2l.43-1.59c.12-.41-.13-.65-.5-.54zm-.08-3.95a12.44 12.44 0 00-.8 1.58 10.19 10.19 0 011.12.61.7.7 0 01.4-.24l1.07-.27a42.26 42.26 0 014-2.52A43.61 43.61 0 0138 16.06l-.27.94a.73.73 0 01-.21.36 10.09 10.09 0 01.74 1.21 14.75 14.75 0 001.6-.84 14.71 14.71 0 002.35-1.86 11.91 11.91 0 003.5-9 11.91 11.91 0 00-9 3.5 15.1 15.1 0 00-1.83 2.35zM42 17.94a13.13 13.13 0 015.22 1.32 10.17 10.17 0 003.58-4.84 10.12 10.12 0 00-5.92-1A11.42 11.42 0 0142 17.94zm-6.22 10.87l-.42-1.6a.41.41 0 00-.75-.2l-1.17 1.16a.41.41 0 00.2.75l1.6.43c.4.12.65-.13.54-.54zm4.91-2.25a14.71 14.71 0 003 .35A11.91 11.91 0 0052.5 23a11.91 11.91 0 00-8.84-3.89 15.09 15.09 0 00-3 .34 12.44 12.44 0 00-1.77.58 10.32 10.32 0 01.33 1.25.88.88 0 01.22.08l1.21.62a42.17 42.17 0 014.61 1 41.71 41.71 0 01-5.1 1.06l-.58.37a.84.84 0 01-.26.11 10.09 10.09 0 01-.3 1.47 14.73 14.73 0 001.63.51zm-8.58 5l1.53-.63a.41.41 0 00.1-.77l-1.31-1c-.34-.26-.66-.13-.72.29l-.22 1.64c-.05.42.22.63.62.47zm1.7-9.65l-1.43.83a.41.41 0 000 .77l1.43.82c.37.21.67 0 .67-.39v-1.65c0-.43-.31-.6-.68-.38zm-2.18 5.26a.41.41 0 00.75.2l1.16-1.17a.41.41 0 00-.2-.75l-1.6-.45c-.41-.11-.66.14-.54.55zM26.48 17c.34.26.66.13.72-.29l.22-1.71c.06-.42-.22-.64-.61-.47l-1.53.63a.41.41 0 00-.1.77zm7-1.71L32 14.62c-.39-.16-.67 0-.62.47l.21 1.64a.41.41 0 00.72.3l1.31-1a.41.41 0 00-.14-.77zm-12.73 8.2l1.45.79c.37.2.67 0 .66-.4v-1.65c0-.43-.32-.59-.68-.37l-1.41.86a.41.41 0 00-.02.77zm3 10.43a12.42 12.42 0 00.81-1.59 10.23 10.23 0 01-1.19-.73.81.81 0 01-.31.14l-.83.19a40.48 40.48 0 01-4.25 2.73 43.64 43.64 0 012.62-4.06l.34-1.11a.9.9 0 01.09-.2 10.15 10.15 0 01-.74-1.17 14.74 14.74 0 00-1.55.81 14.7 14.7 0 00-2.35 1.86 11.91 11.91 0 00-3.5 9 11.91 11.91 0 009-3.5 15.1 15.1 0 001.82-2.37zm-5.11-16.24a12.42 12.42 0 001.6.81 10.22 10.22 0 01.76-1.14.78.78 0 01-.2-.35l-.25-1a41.39 41.39 0 01-2.63-4.11A43.3 43.3 0 0122 14.58l1 .27a.81.81 0 01.3.15 10.08 10.08 0 011.18-.73 14.77 14.77 0 00-.83-1.59 14.72 14.72 0 00-1.86-2.35 11.91 11.91 0 00-9-3.5 11.91 11.91 0 003.5 9 15.1 15.1 0 002.35 1.85zm5.53 4.54v1.65c0 .43.3.6.67.38l1.43-.83a.41.41 0 000-.77l-1.43-.82c-.37-.21-.67-.03-.67.4zm-6.37 4.4a12.41 12.41 0 001.64-.53 10.26 10.26 0 01-.29-1.39l-.15-.08-.83-.49a40.38 40.38 0 01-5-1.07 42.39 42.39 0 015-1l.84-.48a.9.9 0 01.2-.08 10 10 0 01.34-1.35 14.75 14.75 0 00-1.76-.56 14.71 14.71 0 00-3-.35A11.91 11.91 0 006 23.08 11.91 11.91 0 0014.83 27a15.1 15.1 0 002.97-.38zm1.7 11.73a10.17 10.17 0 001 5.93 10.12 10.12 0 004.83-3.58 11.42 11.42 0 01-1.29-5.21 13.13 13.13 0 01-4.54 2.87zm-3-10.08A13.13 13.13 0 0111.32 27a10.17 10.17 0 00-3.56 4.85 10.12 10.12 0 005.93 1 11.42 11.42 0 012.85-4.58zm16.24 6.48a12.43 12.43 0 00-.52-1.75 10.09 10.09 0 01-1.32.3.82.82 0 01-.11.3l-.5.85a40.92 40.92 0 01-1.06 4.86 43 43 0 01-1-4.87l-.49-.86a.84.84 0 01-.1-.28 10.21 10.21 0 01-1.39-.3 14.77 14.77 0 00-.54 1.73 14.71 14.71 0 00-.35 3 11.91 11.91 0 003.89 8.84 11.91 11.91 0 003.89-8.84 15.09 15.09 0 00-.34-3zm7.06-5.9a12.43 12.43 0 00-1.58-.8 10.21 10.21 0 01-.71 1.15.84.84 0 01.11.26l.2.92a40.59 40.59 0 012.72 4.23 42.34 42.34 0 01-4.26-2.78l-.94-.3h-.09a10.09 10.09 0 01-1.25.77 14.75 14.75 0 00.82 1.56 14.71 14.71 0 001.86 2.35 11.91 11.91 0 009 3.5 11.91 11.91 0 00-3.5-9 15.1 15.1 0 00-2.34-1.86zM47.19 27A11.42 11.42 0 0142 28.25a13.13 13.13 0 012.83 4.57 10.17 10.17 0 005.94-1A10.12 10.12 0 0047.19 27zm-12.53 8.54a13.13 13.13 0 01-1.34 5.21 10.17 10.17 0 004.82 3.61 10.12 10.12 0 001-5.92 11.42 11.42 0 01-4.48-2.9zM11.37 19.17a11.42 11.42 0 015.2-1.35 13.13 13.13 0 01-2.91-4.53 10.17 10.17 0 00-5.92 1.09 10.12 10.12 0 003.63 4.79zm13.71 9.94a.41.41 0 00.2-.75l-1.16-1.17a.41.41 0 00-.75.2L22.94 29c-.11.41.13.66.55.55zm-3.71-1.95a.41.41 0 00.77.1l1-1.31c.26-.34.13-.66-.29-.72L21.23 25c-.42-.06-.63.22-.47.61zM25.11 31l1.52.64c.39.16.67 0 .62-.47L27 29.5a.41.41 0 00-.72-.3l-1.31 1a.41.41 0 00.14.8zm-3.8-9.9l1.69-.23c.42-.05.56-.38.3-.71l-1-1.31a.41.41 0 00-.77.1l-.64 1.52c-.21.38 0 .66.42.61zm5.5 3.9l-1.59.43a.41.41 0 00-.2.75l1.17 1.16a.41.41 0 00.75-.2l.42-1.6c.11-.44-.14-.68-.55-.54zm.68-4.32L27 19.05a.41.41 0 00-.75-.2L25.13 20a.41.41 0 00.2.75l1.6.42c.42.14.66-.11.55-.52zm-3.62-9.87a13.13 13.13 0 011.45-5.21 10.17 10.17 0 00-4.74-3.71 10.12 10.12 0 00-1.17 5.89 11.42 11.42 0 014.45 3zm4.62 3.13H30c.39 0 .55-.28.36-.61L29.6 12a.38.38 0 00-.71 0l-.76 1.31c-.19.33-.03.6.36.6zm12 8.68l-1.31-.76c-.34-.19-.61 0-.61.36v1.48c0 .39.28.55.61.36l1.31-.76a.38.38 0 000-.71zm-21.07-.72l-1.31.76a.38.38 0 000 .71l1.31.76c.34.19.61 0 .61-.36v-1.51c-.03-.39-.27-.55-.61-.36zM35.55 31l1.46.41c.38.11.6-.12.51-.49l-.37-1.47a.38.38 0 00-.68-.19l-1.09 1.06a.38.38 0 00.17.68zM23 15.55l-1.46-.41c-.38-.11-.6.12-.51.49l.37 1.47a.38.38 0 00.68.19l1.09-1.06a.38.38 0 00-.17-.68zM37.16 15l-1.47.35a.38.38 0 00-.2.68l1 1.1a.38.38 0 00.69-.16l.43-1.45c.15-.33-.07-.52-.45-.52zM21.63 31.46l1.47-.35a.38.38 0 00.2-.68l-1-1.1a.38.38 0 00-.69.16l-.43 1.45c-.18.37.07.61.45.52z"/><path class="cls-1" d="M47.09 10a13.79 13.79 0 01-.44 1.71 12.05 12.05 0 013.83.86h5.42v49.81h2.59V10zm-35.22 1.61a13.73 13.73 0 01-.41-1.61H0v52.38h2.59V12.56h5.28a12.22 12.22 0 014-.95z"/></g></g></svg>