<svg xmlns="http://www.w3.org/2000/svg" viewBox="0 0 70.24 85.12"><defs><style>.cls-1{fill:#fff}</style></defs><g id="Layer_2" data-name="Layer 2"><g id="Layer_1-2" data-name="Layer 1"><path class="cls-1" d="M4.4 55H1.56v3.64H4.4a1.64 1.64 0 001.81-1.83A1.67 1.67 0 004.4 55m-.08 5.14H1.56v3.95H0V53.48h4.43a3.11 3.11 0 013.4 3.31c0 2.18-1.45 3.32-3.51 3.32m8.59.57a3.93 3.93 0 00-1.82-.35c-1 0-1.63.45-1.63 1.18S10 62.82 11 62.82a2.49 2.49 0 001.92-1zm0 3.39v-.79a3.12 3.12 0 01-2.18 1A2.56 2.56 0 018 61.55C8 59.78 9.34 59 11.14 59a4.37 4.37 0 011.77.3v-.59c0-.86-.53-1.34-1.5-1.34a4 4 0 00-2.07.5l-.6-1.18a4.92 4.92 0 012.72-.69c1.77 0 3 .86 3 2.66v5.44zm7.32-6.3a2.33 2.33 0 00-1.23-.28c-1 0-1.56.7-1.56 2v4.54h-1.52v-7.91h1.56v.76a2.21 2.21 0 011.81-.88 2.27 2.27 0 011.34.33zm5.56 0a2.34 2.34 0 00-1.2-.29c-1 0-1.56.7-1.56 2v4.54h-1.55v-7.9H23v.76a2.21 2.21 0 011.85-.88 2.27 2.27 0 011.34.33zm5.28 2.91a3.92 3.92 0 00-1.81-.35c-1 0-1.63.45-1.63 1.18s.5 1.31 1.53 1.31a2.49 2.49 0 001.92-1zm0 3.39v-.79a3.13 3.13 0 01-2.18 1 2.56 2.56 0 01-2.75-2.67c0-1.77 1.36-2.57 3.16-2.57a4.36 4.36 0 011.77.3v-.59c0-.86-.53-1.34-1.5-1.34a4 4 0 00-2.07.5l-.61-1.18a4.92 4.92 0 012.72-.73c1.77 0 3 .86 3 2.66v5.44zm12.23-.01v-4.49c0-1.6-.5-2.18-1.53-2.18s-1.53.74-1.53 2v4.64h-1.56v-4.46c0-1.6-.5-2.18-1.52-2.18s-1.53.74-1.53 2v4.64h-1.56v-7.91h1.56v.76a2.22 2.22 0 011.89-.88 2.26 2.26 0 012.18 1.16A2.77 2.77 0 0142.13 56c1.84 0 2.72 1.21 2.72 3.55v4.55zm7.58-3.38a3.93 3.93 0 00-1.82-.35c-1 0-1.63.45-1.63 1.18s.5 1.31 1.53 1.31a2.49 2.49 0 001.92-1zm0 3.39v-.79a3.12 3.12 0 01-2.18 1 2.56 2.56 0 01-2.7-2.73c0-1.77 1.32-2.55 3.11-2.55a4.35 4.35 0 011.77.3v-.59c0-.86-.53-1.34-1.49-1.34a4 4 0 00-2.07.5l-.61-1.18a4.9 4.9 0 012.72-.69c1.77 0 3 .86 3 2.66v5.44zm6.81-.21a3.16 3.16 0 01-1.53.36c-1.1 0-1.79-.68-1.79-2.1v-4.57h-1.13v-1.43h1.13v-2.26L55.9 53v3.08h2v1.42h-2v4.31c0 .74.24 1 .82 1a2.47 2.47 0 001.15-.32zm5.1 0a3.16 3.16 0 01-1.52.36c-1.1 0-1.78-.68-1.78-2.1v-4.57h-1.14v-1.43h1.14v-2.26L61 53v3.08h2v1.42h-2v4.31c0 .74.24 1 .82 1a2.49 2.49 0 001.18-.32zm5.87-3.18a3.92 3.92 0 00-1.81-.35c-1 0-1.63.45-1.63 1.18s.5 1.31 1.53 1.31a2.49 2.49 0 001.92-1zm0 3.39v-.79a3.12 3.12 0 01-2.18 1 2.56 2.56 0 01-2.75-2.67c0-1.77 1.36-2.57 3.16-2.57a4.36 4.36 0 011.77.3v-.59c0-.86-.53-1.34-1.5-1.34a4 4 0 00-2.07.5l-.61-1.18a4.91 4.91 0 012.73-.73c1.77 0 3 .86 3 2.66v5.44zm-56.01 20.8V73.41c-.19.46-.65 1.62-1 2.55L7.7 85.12 3.8 76c-.39-.93-.86-2.09-1-2.55V84.9H.5V68.61H3l3.64 8.66c.4.93.91 2.12 1.11 2.79.23-.67.7-1.84 1.09-2.79l3.57-8.66H15v16.26zm5.22-12.2h2.39v12.2h-2.39zm1.21-1.58a1.55 1.55 0 111.53-1.53 1.55 1.55 0 01-1.53 1.53m7.62 14.03a8.36 8.36 0 01-4.7-1.55l1.09-1.81A6.4 6.4 0 0026.67 83c1.51 0 2.23-.49 2.23-1.35s-1.07-1.37-2.83-2c-2.63-1-3.58-1.91-3.58-3.83 0-2.18 1.72-3.32 4.16-3.32a7.26 7.26 0 014.13 1.35l-1 1.83a5.3 5.3 0 00-3.16-1c-1.16 0-1.67.46-1.67 1.11s.42 1 2.25 1.77c2.72 1 4.11 1.79 4.11 4.09 0 2.7-2.18 3.6-4.57 3.6m10.15-.13a8.36 8.36 0 01-4.67-1.55l1.09-1.81A6.4 6.4 0 0036.87 83c1.51 0 2.23-.49 2.23-1.35s-1.07-1.37-2.83-2c-2.62-1-3.58-1.91-3.58-3.83 0-2.18 1.72-3.32 4.16-3.32A7.25 7.25 0 0141 73.77l-1 1.83a5.32 5.32 0 00-3.16-1c-1.16 0-1.67.46-1.67 1.11s.42 1 2.25 1.77c2.72 1 4.11 1.79 4.11 4.09 0 2.7-2.18 3.6-4.58 3.6m6.54-12.5h2.39v12.2h-2.39zm1.21-1.57a1.55 1.55 0 111.53-1.53 1.55 1.55 0 01-1.53 1.53m8.43 3.6c-1.81 0-2.93 1.6-2.93 4 0 2.67 1.23 4.14 3 4.14s3-1.83 3-4.07c0-2.48-1.18-4.08-3.11-4.08m0 10.42c-3.06 0-5.36-2.53-5.36-6.34 0-4 2.37-6.36 5.44-6.36s5.43 2.48 5.43 6.29c0 4-2.37 6.41-5.5 6.41m14.75-.24V78c0-2.46-.93-3.34-2.51-3.34s-2.51 1.14-2.51 3.11v7.13h-2.39V72.67h2.39v1.16a3.73 3.73 0 013.06-1.42c2.83 0 4.34 1.86 4.34 5.46v7zM34.07 0a11 11 0 1011 11 11 11 0 00-11-11"/><path class="cls-1" d="M54 14.79a20 20 0 11-39.95 0v-.25H6.61v.25a27.46 27.46 0 0054.93 0v-.25H54v.25"/></g></g></svg>