<svg xmlns="http://www.w3.org/2000/svg" viewBox="0 0 92.15 68.01"><defs><style>.cls-1{fill:#fff}</style></defs><g id="Layer_2" data-name="Layer 2"><g id="Layer_1-2" data-name="Layer 1"><path class="cls-1" d="M15 34.92a1.8 1.8 0 00-1.26-.43c-.77 0-1.31.46-1.31 1 0 .77.66 1 1.34 1.32.88.43 1.77.73 1.77 1.95a1.7 1.7 0 01-1.9 1.6 2.76 2.76 0 01-2-.81l.43-.38a2.15 2.15 0 001.56.61c.78 0 1.26-.46 1.26-1 0-.82-.75-1.1-1.42-1.43-.83-.41-1.7-.74-1.7-1.84a1.75 1.75 0 012-1.62 2.4 2.4 0 011.68.61zm4.81-.43a2.67 2.67 0 102.57 2.67 2.55 2.55 0 00-2.57-2.67m0 5.92A3.24 3.24 0 1123 37.16a3.15 3.15 0 01-3.22 3.24m5.41-6.4v3.9a1.71 1.71 0 103.41 0V34h.63v3.9a2.33 2.33 0 11-4.66 0V34zm5.3.03h4.84v.55h-2.11v5.72h-.63v-5.72h-2.1v-.55zm6.14 6.27v-6.27h.63v2.74h3.44v-2.74h.62v6.27h-.62v-2.97h-3.44v2.97h-.63zm8.98-6.27h.66l1.56 5.47h.01l1.59-5.47h.83l1.57 5.46h.02l1.54-5.46h.66l-1.79 6.27h-.83l-1.58-5.47h-.02l-1.58 5.47h-.84l-1.8-6.27zm13.77 5.71v.56h-3.99v-6.27h3.89v.55h-3.26v2.18h3.04v.56h-3.04v2.42h3.36zm4.51-4.82a1.79 1.79 0 00-1.26-.43c-.77 0-1.31.46-1.31 1 0 .77.66 1 1.34 1.32.88.43 1.77.73 1.77 1.95a1.7 1.7 0 01-1.9 1.6 2.77 2.77 0 01-2-.81l.43-.38a2.16 2.16 0 001.56.61c.78 0 1.25-.46 1.25-1 0-.82-.75-1.1-1.42-1.43-.83-.41-1.7-.74-1.7-1.84a1.75 1.75 0 012-1.62 2.4 2.4 0 011.67.61zm1.54-.89h4.84v.55h-2.11v5.72h-.62v-5.72h-2.11v-.55zm10.14 5.71v.56h-4v-6.27h3.89v.55H72.2v2.18h3.04v.56H72.2v2.42h3.37zm2.05-2.92h1c1 0 1.58-.4 1.58-1.13s-.58-1.1-1.58-1.1h-1zm1.2.56h-1.2v2.92H77V34h1.68c1.4 0 2.22.52 2.22 1.66a1.55 1.55 0 01-1.41 1.61l1.77 3h-.7zm8.45 2.2v-5.55h.62v6.27h-.85l-3.74-5.55h-.02v5.55h-.63v-6.27h.85l3.75 5.55h.02zM15 45.67a1.8 1.8 0 00-1.26-.43c-.77 0-1.31.46-1.31 1 0 .77.66 1 1.34 1.32.88.43 1.77.74 1.77 1.94a1.7 1.7 0 01-1.9 1.6 2.77 2.77 0 01-2-.81l.43-.38a2.16 2.16 0 001.56.61c.78 0 1.26-.46 1.26-1 0-.82-.75-1.1-1.42-1.43-.83-.41-1.7-.74-1.7-1.84a1.75 1.75 0 012-1.62 2.41 2.41 0 011.68.61zm3.79 5.38v-2.63l-2.39-3.64h.72l1.98 3.04h.01l1.98-3.04h.72l-2.39 3.64v2.63h-.63zm4.95-.55h1.46a2.58 2.58 0 100-5.16h-1.46zm-.63-5.72h2.09a3.14 3.14 0 110 6.27h-2.08zm11.61 5.56v-5.56h.62v6.27h-.85l-3.74-5.55h-.02v5.55h-.63v-6.27h.85l3.75 5.56h.02zm6.64.16v.55h-4v-6.27h3.89v.55h-3.26v2.18h3.05v.56h-3.05v2.43h3.37zm3.41.55v-2.63l-2.4-3.64h.72l1.98 3.04h.02l1.98-3.04h.72l-2.4 3.64v2.63h-.62z"/><path class="cls-1" d="M12.68 24.25A5.2 5.2 0 018.48 22v-5.67a5.07 5.07 0 014.2-2.16 5 5 0 010 10.08m1.6-15.53c-3 0-5.76.84-7.44 2.92h-.08c-.84-1.72-3-2.44-5-2.44A5 5 0 000 9.48l.24 5.2a1.8 1.8 0 01.4 0c.88 0 1.76.76 1.76 2.8v20a3 3 0 006.08 0V27.25h.08a8.12 8.12 0 004.12 2.2 7.07 7.07 0 002.08.2c5-.24 9-4.64 9-10.44 0-6-4.28-10.48-9.48-10.48m24.96.07a10 10 0 00-2.44.2 7.27 7.27 0 00-4.12 2.48h-.08V0h-6.08v29.21h6.08V16.37a4.45 4.45 0 014-2.2c2.48 0 3.76 1.92 3.76 4.84v10.2h6.08v-9.6a22.32 22.32 0 00-.24-3.36c-.6-4.36-2.92-7.2-7-7.44m22.42-.09a6.5 6.5 0 00-6.12 3.48h-.08l-.12-3h-5.64v20h6.08V16.37a4.45 4.45 0 014-2.2c2.48 0 3.76 1.92 3.76 4.84v10.2h6.08V19c0-6.16-2.68-10.28-8-10.28M3.53 66h1.35l-.64-2.41zm.3-3.12h.83l1.34 5h-.64L5 66.54H3.41L3 67.92h-.61zm2.63 1.29H7v.44a1 1 0 01.91-.54c1 0 1 .75 1 1.19v2.66h-.57v-2.59c0-.29 0-.76-.55-.76a.72.72 0 00-.74.76v2.59h-.59zM12.07 66h1.34l-.64-2.41zm.3-3.12h.83l1.34 5h-.64l-.36-1.37h-1.6l-.37 1.37h-.64zm5.02 5.04h-.56v-.44a1 1 0 01-.91.54c-1 0-1-.75-1-1.19v-2.66h.59v2.59c0 .29 0 .76.55.76a.72.72 0 00.74-.76v-2.59h.59zm2.36-2.65c0-.48-.13-.74-.55-.74a.54.54 0 00-.61.57c0 .44.46.52.92.68s.92.31.92 1.06A1.1 1.1 0 0119.21 68a1.15 1.15 0 01-1.29-1.33h.59c0 .45.13.87.7.87a.59.59 0 00.62-.62c0-.5-.46-.61-.92-.76S18 65.88 18 65.1s.55-1 1.2-1c1.09 0 1.13.76 1.14 1.2zm1.46-2.2h.59v1.09h.65v.46h-.65V67c0 .3.08.42.38.42a1.69 1.69 0 00.26 0v.48a2.49 2.49 0 01-.44.1c-.61 0-.76-.25-.76-.74v-2.63h-.55v-.46h.55zm1.65 1.1h.59v.56c.17-.36.39-.66.81-.66a.59.59 0 01.26 0v.57a1.69 1.69 0 00-.31 0 .83.83 0 00-.77.89v2.37h-.59zm3.83 1.7c-.22.23-.73.28-1 .44a.6.6 0 00-.29.59c0 .38.13.64.53.64a.76.76 0 00.76-.71zm-1.81-.57c0-.85.36-1.23 1.26-1.23 1.14 0 1.14.69 1.14 1.08v2.09c0 .15 0 .3.18.3a.21.21 0 00.14 0v.42a2.24 2.24 0 01-.34 0c-.22 0-.5 0-.53-.48a1.06 1.06 0 01-.9.54c-.7 0-1-.42-1-1.09a1 1 0 01.71-1l.79-.24c.43-.13.43-.25.43-.57s-.21-.55-.6-.55a.64.64 0 00-.64.74zm3.2-2.38h.59v5h-.59zm1.33 5H30v-3.75h-.59zm0-4.32H30v-.67h-.59zm3.06 2.27c-.22.23-.73.28-1 .44a.6.6 0 00-.29.59c0 .38.13.64.53.64a.76.76 0 00.76-.71zm-1.81-.57c0-.85.36-1.23 1.26-1.23 1.14 0 1.14.69 1.14 1.08v2.09c0 .15 0 .3.18.3a.21.21 0 00.14 0v.42A2.24 2.24 0 0133 68c-.22 0-.5 0-.53-.48a1.06 1.06 0 01-.9.54c-.7 0-1-.42-1-1.09a1 1 0 01.71-1l.79-.24c.43-.13.43-.25.43-.57s-.21-.55-.6-.55a.64.64 0 00-.64.74zm3.18-1.13h.56v.44a1 1 0 01.91-.54c1 0 1 .75 1 1.19v2.66h-.59v-2.59c0-.29 0-.76-.55-.76a.72.72 0 00-.74.76v2.59h-.59zm7.31.14c0-.53-.22-1-.83-1-.85 0-1 .94-1 2.09s.11 2.09 1 2.09.92-1 .92-1.68h-1v-.5h1.56v2.6h-.46v-.68a1.11 1.11 0 01-1.08.78c-1.3 0-1.53-1.25-1.53-2.6s.23-2.6 1.61-2.6a1.37 1.37 0 011.48 1.48zM44.49 66c0-.81-.12-1.51-.75-1.51S43 65.23 43 66s.12 1.51.72 1.51.75-.7.75-1.51m-.73-2c1.08 0 1.35.92 1.35 2s-.27 2-1.35 2-1.35-.92-1.35-2 .27-2 1.35-2m1.57.17h.64l.7 3.01h.02l.7-3.01h.64l-1.02 3.75h-.67l-1.01-3.75zm4.9 1.48v-.2c0-.42-.13-.92-.65-.92s-.68.76-.68 1v.14zm-1.36.46c0 .57 0 1.44.72 1.44.56 0 .64-.59.64-.87h.59A1.27 1.27 0 0149.54 68c-.92 0-1.3-.64-1.3-1.92 0-.94.18-2 1.34-2s1.25 1 1.25 1.81v.24zm2.57-1.94H52v.56c.17-.36.39-.66.81-.66a.58.58 0 01.26 0v.57a1.69 1.69 0 00-.31 0 .83.83 0 00-.77.89v2.37h-.59zm2.1 0h.56v.44a1 1 0 01.91-.54c1 0 1 .75 1 1.19v2.66h-.59v-2.59c0-.29 0-.76-.55-.76a.72.72 0 00-.74.76v2.59h-.59zm3.2 0h.56v.44a1 1 0 01.91-.54.74.74 0 01.81.6 1 1 0 01.89-.6c1 0 1 .75 1 1.19v2.66h-.59v-2.59c0-.29 0-.76-.5-.76a.69.69 0 00-.7.76v2.59h-.59v-2.59c0-.29 0-.76-.5-.76a.69.69 0 00-.7.76v2.59h-.59zm6.78 1.48v-.2c0-.42-.13-.92-.65-.92s-.68.76-.68 1v.14zm-1.36.46c0 .57 0 1.44.72 1.44.56 0 .64-.59.64-.87h.59A1.27 1.27 0 0162.82 68c-.92 0-1.3-.64-1.3-1.92 0-.94.18-2 1.34-2s1.25 1 1.25 1.81v.24zm2.57-1.94h.56v.44a1 1 0 01.91-.54c1 0 1 .75 1 1.19v2.66h-.59v-2.59c0-.29 0-.76-.55-.76a.72.72 0 00-.74.76v2.59h-.59zm3.41-1.1h.59v1.09h.65v.46h-.65V67c0 .3.08.42.38.42a1.67 1.67 0 00.26 0v.48a2.49 2.49 0 01-.48 0c-.61 0-.76-.25-.76-.74v-2.53h-.55v-.46h.55zm3.34-.15h.62v5h-.62zm1.41 1.25h.56v.44a1 1 0 01.91-.54c1 0 1 .75 1 1.19v2.66h-.59v-2.59c0-.29 0-.76-.55-.76a.72.72 0 00-.74.76v2.59h-.59zm3.19 3.75h.59v-3.75h-.59zm0-4.32h.59v-.67h-.59zm1.57-.53h.59v1.09h.65v.46h-.65V67c0 .3.08.42.38.42a1.69 1.69 0 00.26 0v.48a2.49 2.49 0 01-.48 0c-.61 0-.76-.25-.76-.74v-2.53h-.55v-.46h.55zm1.67 4.85h.59v-3.75h-.59zm0-4.32h.59v-.67h-.59zm3.06 2.27c-.22.23-.73.28-1 .44a.6.6 0 00-.29.59c0 .38.13.64.53.64a.76.76 0 00.76-.71zm-1.81-.57c0-.85.36-1.23 1.26-1.23 1.14 0 1.14.69 1.14 1.08v2.09c0 .15 0 .3.18.3a.21.21 0 00.14 0v.42a2.29 2.29 0 01-.34 0c-.22 0-.5 0-.53-.48a1.06 1.06 0 01-.9.54c-.7 0-1-.42-1-1.09a1 1 0 01.71-1l.79-.24c.43-.13.43-.25.43-.57s-.21-.55-.6-.55a.64.64 0 00-.64.74zm3.36-2.23h.59v1.09h.65v.46h-.65V67c0 .3.08.42.38.42a1.69 1.69 0 00.26 0v.48a2.5 2.5 0 01-.48 0c-.61 0-.76-.25-.76-.74v-2.53h-.55v-.46h.55zm1.67 4.85h.59v-3.75h-.59zm0-4.32h.59v-.67h-.59zm1.05.57h.65l.69 3.01h.02l.7-3.01h.64l-1.01 3.75h-.67l-1.02-3.75zm4.91 1.48v-.2c0-.42-.13-.92-.65-.92s-.69.76-.69 1v.14zm-1.36.46c0 .57 0 1.44.72 1.44.56 0 .64-.59.64-.87h.59A1.27 1.27 0 0190.86 68c-.92 0-1.3-.64-1.3-1.92 0-.94.18-2 1.34-2s1.25 1 1.25 1.81v.24z"/></g></g></svg>