<svg xmlns="http://www.w3.org/2000/svg" viewBox="0 0 92.34 63.32"><defs><style>.cls-1{fill:#fff}</style></defs><g id="Layer_2" data-name="Layer 2"><g id="Layer_1-2" data-name="Layer 1"><path class="cls-1" d="M34.56.71a5.26 5.26 0 00-1.43-.57l-.28-.06H5.32a5.32 5.32 0 00-.05 10.63h8v21.2c3.4-15.36 10.63-21.27 10.63-21.27h8A5.32 5.32 0 0034.56.71"/><path class="cls-1" d="M23.93 10.64s-7.36 12.16-8 25.83a5.32 5.32 0 008-4.56zM73.8 26.59zm.26 0c16.07-.17 16.82-16 16.82-16a16.37 16.37 0 00-3.49-5.17C82.07.17 74.72 0 73.79 0H60.5a5.32 5.32 0 000 10.64h13.31s3.83.13 6.07 2.36c1.28 1.27 1.9 3.11 1.9 5.62a8.62 8.62 0 01-1.12 4.64 6.13 6.13 0 01-2.36 2.13 11.23 11.23 0 01-4.52 1.21m-9.52 2.92l-2-4L53 7l-2-4.06a5.32 5.32 0 00-9.51 0L28.24 29.37a5.32 5.32 0 009.29 5.18c0-.08.1-.17.15-.27l8.53-17.07L50.09 25l4.66 9.31a5.56 5.56 0 00.37.63l.2.27.21.25.12.13a5.31 5.31 0 008.5-6.14"/><path class="cls-1" d="M92.23 16.22C90.11 21.09 85.58 26.59 74 26.59h-9.85L65.37 29a6.54 6.54 0 01-2.08 8.18h10.46a21.66 21.66 0 008.18-1.81 17.81 17.81 0 005.26-3.5l.15-.15A16.37 16.37 0 0091 26.21a18.88 18.88 0 001.15-4.39 22.94 22.94 0 00.22-3.2 23.41 23.41 0 00-.12-2.39m-79.9 32.18a3.56 3.56 0 013.65-3.6 3.39 3.39 0 013.19 2.08c.05.14 0 .23-.16.23h-.35a.25.25 0 01-.24-.15A2.66 2.66 0 0016 45.48a2.93 2.93 0 100 5.86 2.66 2.66 0 002.44-1.48.25.25 0 01.24-.15H19c.14 0 .22.09.17.21A3.4 3.4 0 0116 52a3.56 3.56 0 01-3.66-3.61m12.35 3.05v.26a.18.18 0 01-.2.2H21a.18.18 0 01-.2-.2v-6.57a.18.18 0 01.2-.2h.3a.18.18 0 01.2.2v6.12h3a.18.18 0 01.2.2m5.3-.01v.26a.18.18 0 01-.2.2h-3.59a.18.18 0 01-.2-.2v-6.57a.18.18 0 01.2-.2h3.54a.18.18 0 01.2.2v.26a.18.18 0 01-.2.2h-3v2.47h2.75a.18.18 0 01.2.2v.26a.18.18 0 01-.2.2h-2.79v2.53h3.09a.18.18 0 01.2.2m3.53.29l-2.43-6.58c-.05-.14 0-.23.17-.23h.32a.22.22 0 01.23.16L34 51l2.13-5.95a.22.22 0 01.23-.16h.32c.14 0 .22.09.17.23l-2.43 6.59a.24.24 0 01-.23.16h-.38a.24.24 0 01-.23-.16m8.53-.27v.26a.18.18 0 01-.2.2h-3.58a.18.18 0 01-.2-.2v-6.57a.18.18 0 01.2-.2h3.54a.18.18 0 01.2.2v.26a.18.18 0 01-.2.2h-3v2.47h2.79a.18.18 0 01.2.2v.26a.18.18 0 01-.2.2h-2.83v2.53h3.09a.18.18 0 01.2.2m2.17-3h1.79a1.44 1.44 0 000-2.87h-1.79zm4.55 3.45h-.4a.3.3 0 01-.25-.11l-2.35-2.68h-1.55v2.59a.18.18 0 01-.2.2h-.3a.18.18 0 01-.2-.2v-6.57a.18.18 0 01.2-.2h2.29a2.09 2.09 0 01.56 4.07L49 51.65c.11.13.06.25-.11.25m4.57-6.97h.3a.18.18 0 01.2.2v6.57a.18.18 0 01-.2.2h-.3a.18.18 0 01-.2-.2v-6.57a.18.18 0 01.2-.2m8.03 3.48a2.66 2.66 0 00-2.61-2.83h-2.19v5.66h2.19a2.66 2.66 0 002.61-2.83m.68 0a3.33 3.33 0 01-3.29 3.49h-2.69a.18.18 0 01-.2-.2v-6.57a.18.18 0 01.2-.2h2.69a3.33 3.33 0 013.29 3.49m5.64 3.02v.26a.18.18 0 01-.2.2H64a.18.18 0 01-.2-.2v-6.57a.18.18 0 01.2-.2h3.54a.18.18 0 01.2.2v.26a.18.18 0 01-.2.2h-3v2.47h2.79a.18.18 0 01.2.2v.26a.18.18 0 01-.2.2h-2.81v2.53h3.09a.18.18 0 01.2.2m5.49-1.92l-1.41-3.74-1.41 3.74zm1.54 2.14c0 .14 0 .23-.16.23h-.32a.24.24 0 01-.23-.16l-.59-1.55h-3.31l-.59 1.55a.24.24 0 01-.23.16h-.31c-.15 0-.21-.09-.16-.23l2.53-6.59a.24.24 0 01.23-.16h.38a.24.24 0 01.23.16zm.91-1.58a.17.17 0 01.19-.21h.31a.19.19 0 01.2.2c.1.83.8 1.27 1.73 1.27s1.55-.46 1.55-1.21-.74-1.09-1.56-1.39c-1.06-.4-2.22-.76-2.22-2.11A1.93 1.93 0 0178 44.81a2 2 0 012.17 1.78.17.17 0 01-.19.21h-.31a.18.18 0 01-.2-.19A1.33 1.33 0 0078 45.48c-.77 0-1.4.41-1.4 1.15s.7 1.11 1.53 1.42c1.06.41 2.25.8 2.25 2.08a2 2 0 01-2.2 1.87 2.21 2.21 0 01-2.43-1.93m-70.6 9.64A3.55 3.55 0 018.8 56.1a3.4 3.4 0 013.2 2.17.17.17 0 01-.17.24h-.53a.26.26 0 01-.25-.16A2.44 2.44 0 008.8 57a2.72 2.72 0 100 5.43 2.44 2.44 0 002.25-1.36.26.26 0 01.25-.16h.56c.15 0 .23.09.18.22a3.4 3.4 0 01-3.24 2.2 3.55 3.55 0 01-3.65-3.61m13.22-3.29V63a.19.19 0 01-.21.21h-.5a.19.19 0 01-.21-.21v-3h-3v3a.19.19 0 01-.21.21h-.5a.19.19 0 01-.21-.21v-6.57a.19.19 0 01.21-.21h.5a.19.19 0 01.21.21v2.74h3v-2.74a.19.19 0 01.21-.21h.5a.19.19 0 01.21.21m5.53 4.34l-1.24-3.46-1.24 3.46zm1.6 2.43H25a.24.24 0 01-.24-.17l-.5-1.39h-3.15l-.5 1.36a.24.24 0 01-.24.17h-.55c-.16 0-.22-.09-.17-.24l2.43-6.56a.25.25 0 01.24-.17H23a.25.25 0 01.24.17L25.67 63c.05.15 0 .24-.17.24m5.57-7.02h.5a.19.19 0 01.21.21V63a.19.19 0 01-.21.21h-.37a.27.27 0 01-.26-.14l-3.08-5V63a.19.19 0 01-.21.21h-.5a.19.19 0 01-.21-.21v-6.57a.19.19 0 01.21-.21h.37a.27.27 0 01.26.14l3.08 5v-4.93a.19.19 0 01.21-.21m9.22 3.6V63a.19.19 0 01-.21.21h-.48a.19.19 0 01-.21-.21v-.8a2.87 2.87 0 01-2.46 1.14 3.61 3.61 0 010-7.23 3.41 3.41 0 013.23 2.13c.05.15 0 .24-.17.24h-.56a.27.27 0 01-.25-.16A2.47 2.47 0 0037 57a2.73 2.73 0 000 5.46 2.14 2.14 0 002.4-2h-2a.19.19 0 01-.21-.21v-.42a.19.19 0 01.21-.21h2.74a.19.19 0 01.21.21m2-3.61h.5a.19.19 0 01.21.21V63a.19.19 0 01-.21.21h-.5a.19.19 0 01-.21-.21v-6.57a.19.19 0 01.21-.21m6.79 0h.5a.19.19 0 01.21.21V63a.19.19 0 01-.21.21h-.37a.27.27 0 01-.26-.14l-3.08-5V63a.19.19 0 01-.21.21h-.5A.19.19 0 0145 63v-6.57a.19.19 0 01.21-.21h.37a.27.27 0 01.26.14l3.08 5v-4.93a.19.19 0 01.21-.21m9.23 3.6V63a.19.19 0 01-.21.21h-.47a.19.19 0 01-.21-.21v-.8A2.87 2.87 0 0155 63.32a3.61 3.61 0 01.05-7.23 3.41 3.41 0 013.23 2.13c.05.15 0 .24-.17.24h-.56a.26.26 0 01-.25-.16 2.47 2.47 0 00-2.25-1.3 2.73 2.73 0 000 5.46 2.14 2.14 0 002.4-2h-2a.19.19 0 01-.21-.21v-.42a.19.19 0 01.21-.21h2.74a.19.19 0 01.21.21m8.6 2.7V63a.19.19 0 01-.21.21h-3.48a.19.19 0 01-.21-.21v-6.57a.19.19 0 01.21-.21h.5a.19.19 0 01.21.21v5.89h2.78a.19.19 0 01.21.21m1.47-6.31H69a.19.19 0 01.21.21V63a.19.19 0 01-.21.21h-.5a.19.19 0 01-.21-.21v-6.57a.19.19 0 01.21-.21M72.77 63l-2.33-6.56c-.05-.15 0-.24.18-.24h.55a.23.23 0 01.24.17l1.95 5.69 1.95-5.69a.23.23 0 01.24-.17h.55c.15 0 .23.09.18.24L73.94 63a.24.24 0 01-.24.17H73a.24.24 0 01-.24-.17m8.81-.47V63a.19.19 0 01-.21.21h-3.62a.19.19 0 01-.21-.21v-6.57a.19.19 0 01.21-.21h3.56a.19.19 0 01.21.21v.45a.19.19 0 01-.21.21h-2.85v2.15h2.6a.19.19 0 01.21.21v.44a.19.19 0 01-.21.21h-2.6v2.21h2.9a.19.19 0 01.21.21m1.04-1.17a.18.18 0 01.2-.22h.51a.2.2 0 01.22.21c.09.71.69 1.08 1.54 1.08s1.37-.41 1.37-1-.68-1-1.45-1.24c-1-.38-2.23-.76-2.23-2.15a2 2 0 012.16-1.89A2.06 2.06 0 0187.15 58a.18.18 0 01-.2.22h-.51a.2.2 0 01-.21-.2 1.17 1.17 0 00-1.31-1c-.7 0-1.24.37-1.24 1s.63 1 1.4 1.28c1 .39 2.28.77 2.28 2.12a2.07 2.07 0 01-2.29 1.94 2.23 2.23 0 01-2.47-2"/></g></g></svg>