<svg xmlns="http://www.w3.org/2000/svg" viewBox="0 0 137.94 53.95"><g data-name="Layer 2"><path d="M29.64 22.17v-5.31c0-.47-.28-.69-1.4-.73v-.28h3.9v.28c-1.17 0-1.28.23-1.28.73v5c0 1.75 1.14 2.36 2.55 2.36a2.26 2.26 0 001.64-.62 2.41 2.41 0 00.69-1.92V17.9c0-1.21-.33-1.63-1.59-1.81v-.24h3.35v.24c-1.17.21-1.35.6-1.35 1.81V22c0 1.53-1.09 2.77-3.23 2.77s-3.28-1-3.28-2.57m10.44-5.04v5.3c0 1.22.21 1.63 1.48 1.81v.26h-3.35v-.26c1.18-.19 1.45-.59 1.45-1.81v-5.17c0-.63-.37-1.14-1.45-1.17v-.28h2.45l5 6.78V17.9c0-1.21-.33-1.63-1.59-1.81v-.24h3.36v.24c-1.18.21-1.36.6-1.36 1.81v6.84h-.4zm8.21 7.07c1.14 0 1.41-.26 1.41-.73v-6.64c0-.47-.27-.69-1.41-.73v-.28h4v.28c-1.14 0-1.41.26-1.41.73v6.64c0 .47.27.69 1.41.73v.3h-4zm6.24-7c-.28-.74-.49-.95-1.46-1.13v-.26h3.83v.28c-1.17.06-1.35.31-1.12.94L58 23.13l2-5.28c.45-1.22.28-1.57-.9-1.76v-.24h3v.24c-.87.18-1.18.6-1.68 1.89l-2.67 6.78h-.44zm8.13 7c1.12 0 1.38-.26 1.38-.73v-6.64c0-.47-.27-.69-1.38-.73v-.28h7.05v2.57h-.28c-.54-1.57-1-2.22-2.44-2.22h-1.72v3.63H66c1 0 1.46-.22 1.8-1.59h.26v3.57h-.26c-.33-1.37-.78-1.6-1.8-1.6h-.78v4H67c1.72 0 2.28-.78 2.85-2.41h.28l-.06 2.77h-7.41zM74 23.5c0 .5.19.69 1.37.73v.3h-4v-.3c1.12 0 1.38-.26 1.38-.73v-6.64c0-.47-.27-.69-1.38-.73v-.28H75c2.59 0 3.5 1 3.5 2.1s-.68 1.89-2.42 2.21c1.72.12 2 .85 2.19 2l.14.89c.15 1 .42 1.14 1.44 1.17v.28a3.84 3.84 0 01-.86.1c-1.51 0-1.78-.42-1.9-1.6L77 21.91c-.13-1.27-.56-1.55-2-1.55h-1zm1.1-3.5c1.72 0 2.1-.78 2.1-2s-.55-1.78-2.24-1.78H74V20zm5.71 1.82h.3c.68 1.57 1.5 2.54 2.76 2.54a1.73 1.73 0 001.9-1.67c0-1.08-.73-1.46-2.32-2-1.2-.45-2.45-.79-2.45-2.41a2.65 2.65 0 012.91-2.63 4.74 4.74 0 011.76.33l.41-.41h.22v2.64H86c-.52-1.4-1.29-2.21-2.33-2.21A1.54 1.54 0 0082 17.6c0 1.05.8 1.39 2.21 1.86 1.19.41 2.44.81 2.44 2.44a2.7 2.7 0 01-3 2.82 4.87 4.87 0 01-2-.45l-.72.5h-.23zM88 24.23c1.14 0 1.41-.26 1.41-.73v-6.64c0-.47-.27-.69-1.41-.73v-.28h4v.28c-1.14 0-1.41.26-1.41.73v6.64c0 .47.27.69 1.41.73v.3h-4zm6.64 0c1.14 0 1.49-.26 1.49-.73v-7.3h-.63c-1.09 0-1.63.73-2.26 2.3H93v-2.66h7.41l.08 2.64h-.28C99.69 17 99.12 16.2 98 16.2h-.64v7.3c0 .47.35.69 1.49.73v.3h-4.21zm12.77-6.64c.59-1 .58-1.33-.62-1.5v-.24h2.94v.24c-.79.15-1.15.39-1.81 1.49l-1.86 3.13v2.8c0 .47.26.69 1.41.73v.3h-4v-.3c1.15 0 1.41-.26 1.41-.73v-2.63L102.61 17a1.61 1.61 0 00-1.35-.92v-.26H105v.28c-1.19.06-1.28.37-1 .95l1.8 3.21zM0 .15h2.56l1.98 7.73L6.69.12H8.8l2.16 7.76L12.92.15h2.52l-3.36 11.8H9.86L7.71 4.49l-2.14 7.46H3.35L0 .15zm16.67 0h7.56v2.2h-5.15v2.53h4.53v2.19h-4.53v2.62h5.21v2.19h-7.62V.15zm8.61 10.16l1.44-1.79a4.5 4.5 0 002.92 1.32c.94 0 1.51-.47 1.51-1.16 0-.59-.34-1-2-1.59-2.08-.8-3.37-1.59-3.37-3.6 0-2 1.58-3.44 3.84-3.44a5.58 5.58 0 013.79 1.44L32 3.28a4.11 4.11 0 00-2.5-1.09c-.84 0-1.36.42-1.36 1 0 .67.4 1 2.23 1.74 2 .8 3.15 1.68 3.15 3.5 0 2.18-1.66 3.52-3.94 3.52a6.3 6.3 0 01-4.34-1.73M37.26 2.4h-2.95V.15h8.32V2.4h-2.96v9.48h-2.41V2.4zM43.87.15h7.56v2.2h-5.14v2.53h4.52v2.19h-4.52v2.62h5.21v2.19h-7.63V.15zm9.2 0h4.41a4.36 4.36 0 013.18 1.12 3.71 3.71 0 011 2.71v.07a3.54 3.54 0 01-2.18 3.47L62 11.88h-2.81L57 8h-1.5v3.85h-2.43zm4.23 5.73a1.69 1.69 0 001.91-1.76c0-1.17-.72-1.76-2-1.76H55.5v3.52zM63.4.15h2.22l4.49 6.84V.15h2.39v11.73h-2.08l-4.64-7.09v7.09H63.4V.15zm14.34 10.16l1.44-1.79a4.5 4.5 0 002.92 1.32c.94 0 1.51-.47 1.51-1.16 0-.59-.34-1-2-1.59-2.08-.8-3.37-1.59-3.37-3.6 0-2 1.58-3.44 3.84-3.44a5.58 5.58 0 013.79 1.44L84.5 3.28A4.11 4.11 0 0082 2.2c-.84 0-1.36.42-1.36 1 0 .67.4 1 2.23 1.74 2 .8 3.15 1.68 3.15 3.5C86 10.69 84.36 12 82.08 12a6.3 6.3 0 01-4.34-1.73m12.4-3.01L86.32.15h2.75l2.31 4.61L93.71.15h2.68l-3.82 7.07v4.66h-2.43V7.26zM97.62.15h3.79c3.4 0 5.6 2.35 5.6 5.78v.15c0 3.44-2.2 5.8-5.6 5.8h-3.79zm2.38 2.2v7.34h1.34c1.84 0 3.1-1.29 3.1-3.62V6c0-2.33-1.26-3.64-3.1-3.64zm8.41-2.2h2.23l4.49 6.84V.15h2.38v11.73h-2.08l-4.64-7.09v7.09h-2.38V.15zm10.96 0h7.56v2.2h-5.15v2.53h4.53v2.19h-4.53v2.62H127v2.19h-7.63V.15zm12.31 7.11L127.86.15h2.75l2.31 4.61 2.33-4.61h2.69l-3.83 7.07v4.66h-2.43V7.26zM61 34.34v11.8c0 4.33 7.84 7.81 7.84 7.81s7.84-3.48 7.84-7.81v-11.8zm11.52 14.12a7 7 0 00-2.05-.74l-1.62-6.78-1.62 6.78a7 7 0 00-2.06.74l-2.6-11h1.63l2 8.23 2-8.23h1.38l2 8.23 1.94-8.23h1.62z" fill="#fff" data-name="Layer 1"/></g></svg>